{"glyphs":{"0":{"ha":621,"x_min":46,"x_max":572,"o":"m 543 54 q 531 54 536 47 l 454 129 q 451 136 451 132 l 451 390 q 454 397 451 394 l 531 474 q 543 474 536 479 l 569 449 q 572 442 572 446 l 572 86 q 569 79 572 82 l 543 54 m 543 485 q 531 485 536 478 l 454 561 q 451 568 451 564 l 451 822 q 454 829 451 826 l 531 904 q 543 904 536 910 l 569 879 q 572 872 572 876 l 572 518 q 569 511 572 514 l 543 485 m 443 840 q 436 838 440 838 l 182 838 q 175 840 178 838 l 99 917 q 99 931 92 924 l 124 956 q 131 958 126 958 l 486 958 q 493 956 490 958 l 518 931 q 518 917 525 924 l 443 840 m 88 485 q 74 485 81 478 l 49 511 q 46 518 46 514 l 46 872 q 49 879 46 876 l 74 904 q 88 904 81 911 l 164 829 q 167 822 167 826 l 167 568 q 164 561 167 564 l 88 485 m 88 54 q 74 54 81 47 l 49 79 q 46 86 46 82 l 46 442 q 49 449 46 446 l 74 474 q 88 474 81 481 l 164 397 q 167 390 167 394 l 167 136 q 164 129 167 132 l 88 54 m 493 3 q 486 0 490 0 l 131 0 q 124 3 126 0 l 99 29 q 99 42 92 35 l 175 118 q 182 121 178 121 l 436 121 q 443 118 440 121 l 518 42 q 518 29 524 35 l 493 3 z "},"1":{"ha":201,"x_min":38,"x_max":158,"o":"m 131 485 q 117 485 124 478 l 40 561 q 38 568 38 564 l 38 871 q 40 878 38 875 l 117 954 q 131 954 124 961 l 156 929 q 158 922 158 926 l 158 517 q 156 510 158 513 l 131 485 m 131 3 q 117 3 124 -4 l 40 79 q 38 86 38 82 l 38 389 q 40 396 38 393 l 117 472 q 131 472 124 479 l 156 447 q 158 440 158 444 l 158 35 q 156 28 158 31 l 131 3 z "},"2":{"ha":621,"x_min":42,"x_max":574,"o":"m 571 517 q 568 510 571 513 l 542 485 q 529 485 535 478 l 453 560 q 450 567 450 563 l 450 821 q 453 828 450 825 l 529 904 q 542 904 535 910 l 568 878 q 571 871 571 875 l 571 517 m 442 839 q 435 836 439 836 l 156 836 q 149 839 151 836 l 47 940 q 44 951 42 946 q 53 957 46 957 l 485 957 q 492 954 489 957 l 518 929 q 518 915 525 922 l 442 839 m 165 136 q 163 129 165 132 l 86 53 q 72 53 79 46 l 47 78 q 44 85 44 81 l 44 440 q 47 447 44 444 l 72 472 q 86 472 79 479 l 163 396 q 165 389 165 393 l 165 136 m 129 0 q 122 3 125 0 l 97 28 q 97 40 90 33 l 174 117 q 181 119 176 119 l 461 119 q 467 117 467 119 l 568 17 q 571 6 574 11 q 561 0 568 0 l 129 0 m 454 421 q 447 418 451 418 l 168 418 q 161 421 164 418 l 110 471 q 110 485 103 478 l 161 536 q 168 539 164 539 l 447 539 q 454 536 451 539 l 506 485 q 506 471 513 478 l 454 421 z "},"3":{"ha":572,"x_min":22,"x_max":525,"o":"m 33 0 q 24 6 26 0 q 28 17 22 11 l 132 119 l 389 119 q 396 117 393 119 l 497 17 q 500 6 503 11 q 490 0 497 0 l 33 0 m 525 35 q 520 25 525 28 q 510 28 515 22 l 407 129 q 404 136 404 132 l 404 389 q 407 396 404 393 l 483 472 q 497 472 490 479 l 522 447 q 525 440 525 444 l 525 35 m 460 485 q 460 471 467 478 l 410 421 q 403 418 407 418 l 122 418 q 115 421 118 418 l 65 471 q 65 485 58 478 l 115 536 q 122 539 118 539 l 403 539 q 410 536 407 539 l 460 485 m 525 517 q 522 510 525 513 l 497 485 q 483 485 490 478 l 407 561 q 404 568 404 564 l 404 821 q 407 828 404 825 l 510 929 q 520 932 515 935 q 525 922 525 929 l 525 517 m 396 840 q 389 838 393 838 l 132 838 l 28 940 q 24 951 22 946 q 33 957 26 957 l 490 957 q 500 951 497 957 q 497 940 503 946 l 396 840 z "},"4":{"ha":606,"x_min":33,"x_max":560,"o":"m 560 10 q 554 0 560 3 q 543 3 549 -3 l 442 104 q 439 111 439 107 l 439 390 q 442 397 439 394 l 518 474 q 531 474 525 481 l 557 449 q 560 442 560 446 l 560 10 m 560 518 q 557 511 560 514 l 531 485 q 518 485 525 478 l 442 561 q 439 568 439 564 l 439 847 q 442 854 439 851 l 543 956 q 554 958 549 961 q 560 949 560 956 l 560 518 m 154 568 q 151 561 154 564 l 75 485 q 61 485 68 478 l 36 511 q 33 518 33 514 l 33 949 q 39 958 33 956 q 49 956 44 961 l 151 854 q 154 847 154 851 l 154 568 m 443 422 q 436 419 440 419 l 156 419 q 149 422 151 419 l 99 472 q 99 486 92 479 l 149 536 q 156 539 151 539 l 436 539 q 443 536 440 539 l 493 486 q 493 472 500 479 l 443 422 z "},"5":{"ha":621,"x_min":43,"x_max":575,"o":"m 465 838 l 182 838 q 175 840 178 838 l 99 917 q 99 931 92 924 l 124 954 q 131 957 126 957 l 563 957 q 572 951 569 957 q 569 940 575 946 l 465 838 m 88 485 q 74 485 81 478 l 49 511 q 46 518 46 514 l 46 872 q 49 879 46 876 l 74 904 q 88 904 81 911 l 163 828 q 165 821 165 825 l 165 568 q 163 561 165 564 l 88 485 m 456 421 q 449 418 453 418 l 168 418 q 161 421 164 418 l 111 472 q 111 486 104 479 l 161 536 q 168 539 164 539 l 449 539 q 456 536 453 539 l 506 486 q 506 472 513 479 l 456 421 m 543 53 q 531 53 536 46 l 454 129 q 451 136 451 132 l 451 389 q 454 396 451 393 l 531 472 q 543 472 536 478 l 569 449 q 572 442 572 446 l 572 86 q 569 79 572 82 l 543 53 m 493 3 q 486 0 490 0 l 54 0 q 45 6 47 0 q 49 17 43 11 l 149 117 q 156 119 151 119 l 183 121 l 435 121 q 442 118 439 121 l 518 42 q 518 29 524 35 l 493 3 z "},"6":{"ha":621,"x_min":46,"x_max":575,"o":"m 492 3 q 485 0 489 0 l 131 0 q 124 3 126 0 l 99 28 q 99 40 92 33 l 175 117 q 182 119 178 119 l 435 119 q 442 117 439 119 l 518 40 q 518 28 524 33 l 492 3 m 571 85 q 568 78 571 81 l 543 53 q 531 53 536 46 l 454 129 q 451 136 451 132 l 451 389 q 454 396 451 393 l 531 472 q 543 472 536 478 l 568 447 q 571 440 571 444 l 571 85 m 468 839 q 463 836 468 836 l 182 836 q 175 839 178 836 l 99 915 q 99 929 92 922 l 124 954 q 131 957 126 957 l 563 957 q 572 951 569 957 q 569 940 575 946 l 468 839 m 506 485 q 506 471 513 478 l 456 421 q 449 418 453 418 l 168 418 q 161 421 164 418 l 111 471 q 111 485 104 478 l 161 536 q 168 539 164 539 l 449 539 q 456 536 453 539 l 506 485 m 165 136 q 163 129 165 132 l 86 53 q 72 53 79 46 l 49 78 q 46 85 46 81 l 46 440 q 49 447 46 444 l 72 472 q 86 472 79 479 l 163 396 q 165 389 165 393 l 165 136 m 165 567 q 163 560 165 563 l 86 485 q 72 485 79 478 l 49 510 q 46 517 46 513 l 46 871 q 49 878 46 875 l 72 904 q 86 904 79 911 l 163 828 q 165 821 165 825 l 165 567 z "},"7":{"ha":572,"x_min":18,"x_max":521,"o":"m 521 10 q 516 0 521 3 q 506 3 511 -3 l 403 104 q 400 110 400 104 l 400 389 q 403 396 400 393 l 479 472 q 493 472 486 479 l 518 447 q 521 440 521 444 l 521 10 m 521 517 q 518 510 521 513 l 493 485 q 479 485 486 478 l 403 561 q 400 568 400 564 l 400 821 q 403 828 400 825 l 506 929 q 516 932 511 935 q 521 922 521 929 l 521 517 m 392 840 q 385 838 389 838 l 131 838 q 124 840 126 838 l 24 940 q 21 951 18 946 q 31 957 24 957 l 486 957 q 496 951 493 957 q 493 940 499 946 l 392 840 z "},"8":{"ha":621,"x_min":46,"x_max":571,"o":"m 493 3 q 486 0 490 0 l 131 0 q 124 3 126 0 l 99 28 q 99 40 92 33 l 175 117 q 182 119 178 119 l 435 119 q 442 117 439 119 l 518 40 q 518 28 524 33 l 493 3 m 571 86 q 568 79 571 82 l 543 53 q 531 53 536 46 l 454 129 q 451 136 451 132 l 451 389 q 454 396 451 393 l 531 472 q 543 472 536 478 l 568 447 q 571 440 571 444 l 571 86 m 571 517 q 568 510 571 513 l 543 485 q 531 485 536 478 l 454 561 q 451 568 451 564 l 451 821 q 454 828 451 825 l 531 904 q 543 904 536 910 l 568 878 q 571 871 571 875 l 571 517 m 442 840 q 435 838 439 838 l 182 838 q 175 840 178 838 l 99 915 q 99 929 92 922 l 124 954 q 131 957 126 957 l 486 957 q 493 954 490 957 l 518 929 q 518 915 525 922 l 442 840 m 165 568 q 163 561 165 564 l 86 485 q 72 485 79 478 l 49 510 q 46 517 46 513 l 46 871 q 49 878 46 875 l 72 904 q 86 904 79 911 l 163 828 q 165 821 165 825 l 165 568 m 506 485 q 506 471 513 478 l 456 421 q 449 418 453 418 l 168 418 q 161 421 164 418 l 111 471 q 111 485 104 478 l 161 536 q 168 539 164 539 l 449 539 q 456 536 453 539 l 506 485 m 165 136 q 163 129 165 132 l 86 53 q 72 53 79 46 l 49 79 q 46 86 46 82 l 46 440 q 49 447 46 444 l 72 472 q 86 472 79 479 l 163 396 q 165 389 165 393 l 165 136 z "},"9":{"ha":621,"x_min":42,"x_max":571,"o":"m 571 518 q 568 511 571 514 l 542 485 q 529 485 535 478 l 453 561 q 450 568 450 564 l 450 821 q 453 828 450 825 l 529 904 q 542 904 535 910 l 568 879 q 571 872 571 876 l 571 518 m 442 840 q 435 838 439 838 l 181 838 q 174 840 176 838 l 97 917 q 97 931 90 924 l 122 956 q 129 958 125 958 l 485 958 q 492 956 489 958 l 518 931 q 518 917 525 924 l 442 840 m 165 568 q 163 561 165 564 l 86 485 q 72 485 79 478 l 47 511 q 44 518 44 514 l 44 872 q 47 879 44 876 l 72 904 q 86 904 79 911 l 163 828 q 165 821 165 825 l 165 568 m 506 486 q 506 472 513 479 l 454 422 q 447 419 451 419 l 168 419 q 161 422 164 419 l 110 472 q 110 486 103 479 l 161 536 q 168 539 164 539 l 451 539 l 506 486 m 492 3 q 485 0 489 0 l 53 0 q 44 6 46 0 q 47 17 42 11 l 147 117 q 154 119 150 119 l 183 121 l 435 121 q 442 118 439 121 l 518 42 q 518 29 524 35 l 492 3 m 571 86 q 568 79 571 82 l 542 53 q 529 53 535 46 l 453 129 q 450 136 450 132 l 450 390 q 453 397 450 394 l 529 474 q 542 474 535 479 l 568 449 q 571 442 571 446 l 571 86 z "},"\u0000":{"ha":0,"x_min":0,"x_max":0,"o":""},"\r":{"ha":621,"x_min":0,"x_max":0,"o":""}," ":{"ha":494,"x_min":0,"x_max":0,"o":""},"E":{"ha":572,"x_min":44,"x_max":549,"o":"m 442 840 q 435 838 439 838 l 182 838 q 175 840 178 838 l 74 942 q 71 953 68 947 q 81 958 74 958 l 536 958 q 546 953 543 958 q 543 942 549 947 l 442 840 m 165 568 q 163 561 165 564 l 88 485 q 74 485 81 478 l 47 511 q 44 518 44 514 l 44 924 q 50 933 44 931 q 61 931 56 936 l 163 829 q 165 822 165 826 l 165 568 m 506 486 q 506 472 513 479 l 456 422 q 449 419 453 419 l 168 419 q 161 422 164 419 l 111 472 q 111 486 104 479 l 161 536 q 168 539 164 539 l 449 539 q 456 536 453 539 l 506 486 m 165 133 l 61 29 q 50 26 56 24 q 44 35 44 28 l 44 442 q 47 449 44 446 l 74 474 q 88 474 81 481 l 163 397 q 165 390 165 394 l 165 133 m 81 0 q 71 6 74 0 q 74 17 68 11 l 175 118 q 182 121 178 121 l 435 121 q 442 118 439 121 l 543 17 q 546 6 549 11 q 536 0 543 0 l 81 0 z "},"F":{"ha":561,"x_min":43,"x_max":546,"o":"m 163 110 q 160 104 163 104 l 58 3 q 48 0 53 -3 q 43 10 43 3 l 43 440 q 44 447 43 446 l 71 472 q 85 472 78 479 l 160 396 q 163 389 163 393 l 163 110 m 453 421 q 446 418 450 418 l 165 418 q 158 421 161 418 l 108 471 q 108 485 101 478 l 158 536 q 165 539 161 539 l 446 539 q 453 536 450 539 l 503 485 q 503 471 510 478 l 453 421 m 439 839 q 432 836 436 836 l 179 836 q 172 839 175 836 l 71 940 q 68 951 65 946 q 78 957 71 957 l 533 957 q 543 951 540 957 q 540 940 546 946 l 439 839 m 163 567 q 160 560 163 563 l 85 485 q 71 485 78 478 l 44 510 q 43 517 43 511 l 43 922 q 48 932 43 929 q 58 929 53 935 l 160 828 q 163 821 163 825 l 163 567 z "},"G":{"ha":621,"x_min":46,"x_max":578,"o":"m 493 3 q 486 0 490 0 l 131 0 q 124 3 126 0 l 99 29 q 99 42 92 35 l 175 117 q 182 119 178 119 l 435 119 q 442 117 439 119 l 518 42 q 518 29 524 35 l 493 3 m 543 53 q 531 53 536 46 l 454 129 q 451 136 451 132 l 451 389 q 454 396 451 393 l 531 472 q 543 472 536 478 l 569 449 q 572 442 572 446 l 572 86 q 569 79 572 82 l 543 53 m 468 838 l 182 838 q 175 840 178 838 l 99 917 q 99 931 92 924 l 124 954 q 131 957 126 957 l 565 957 q 575 951 572 957 q 572 940 578 946 l 468 838 m 88 53 q 74 53 81 46 l 49 79 q 46 86 46 82 l 46 442 q 49 449 46 446 l 74 472 q 88 472 81 479 l 163 396 q 165 389 165 393 l 165 136 q 163 129 165 132 l 88 53 m 88 485 q 74 485 81 478 l 49 511 q 46 518 46 514 l 46 871 q 49 878 46 875 l 74 904 q 88 904 81 911 l 163 828 q 165 821 165 825 l 165 568 q 163 561 165 564 l 88 485 m 456 421 q 449 418 453 418 l 288 418 q 281 421 283 418 l 231 472 q 231 486 224 479 l 281 536 q 288 539 283 539 l 449 539 q 456 536 453 539 l 506 486 q 506 472 513 479 l 456 421 z "},"H":{"ha":621,"x_min":47,"x_max":572,"o":"m 453 107 l 453 390 q 456 397 453 394 l 532 474 q 544 474 538 479 l 569 449 q 572 442 572 446 l 572 10 q 567 0 572 3 q 556 3 561 -3 l 453 107 m 572 518 q 569 511 572 514 l 544 485 q 532 485 538 478 l 456 561 q 453 568 453 564 l 453 851 l 556 956 q 567 958 561 961 q 572 949 572 956 l 572 518 m 167 568 q 164 561 167 564 l 88 485 q 74 485 81 478 l 50 511 q 47 518 47 514 l 47 949 q 52 958 47 956 q 63 956 57 961 l 167 851 l 167 568 m 457 422 q 450 419 454 419 l 169 419 q 163 422 165 419 l 113 472 q 113 486 106 479 l 163 536 q 169 539 165 539 l 450 539 q 457 536 454 539 l 507 486 q 507 472 514 479 l 457 422 m 63 3 q 52 0 57 -3 q 47 10 47 3 l 47 442 q 50 449 47 446 l 74 474 q 88 474 81 481 l 164 397 q 167 390 167 394 l 167 111 q 164 104 167 107 l 63 3 z "},"I":{"ha":201,"x_min":38,"x_max":158,"o":"m 131 485 q 117 485 124 478 l 40 561 q 38 568 38 564 l 38 871 q 40 878 38 875 l 117 954 q 131 954 124 961 l 156 929 q 158 922 158 926 l 158 517 q 156 510 158 513 l 131 485 m 131 3 q 117 3 124 -4 l 40 79 q 38 86 38 82 l 38 389 q 40 396 38 393 l 117 472 q 131 472 124 479 l 156 447 q 158 440 158 444 l 158 35 q 156 28 158 31 l 131 3 z "},"J":{"ha":621,"x_min":46,"x_max":571,"o":"m 543 485 q 531 485 536 478 l 454 561 q 451 568 451 564 l 451 847 q 454 854 451 851 l 554 954 q 565 957 560 960 q 571 947 571 954 l 571 514 l 543 485 m 454 129 q 451 136 451 132 l 451 389 q 454 396 451 393 l 531 472 q 543 472 536 478 l 568 449 q 571 442 571 446 l 571 35 q 565 26 571 28 q 554 29 560 24 l 454 129 m 79 0 q 69 6 72 0 q 72 17 67 11 l 175 118 q 182 121 178 121 l 435 121 q 442 118 439 121 l 543 17 q 547 6 549 11 q 538 0 544 0 l 79 0 m 61 29 q 51 26 56 24 q 46 35 46 28 l 46 382 q 51 391 46 389 q 61 388 56 393 l 163 288 q 165 281 165 285 l 165 136 q 163 129 165 132 l 61 29 z "},"K":{"ha":621,"x_min":46,"x_max":571,"o":"m 571 10 q 565 0 571 3 q 554 3 560 -3 l 454 104 q 451 110 451 104 l 451 389 q 454 396 451 393 l 531 472 q 543 472 536 478 l 568 447 q 571 440 571 444 l 571 10 m 571 875 q 568 868 571 871 l 258 558 q 251 556 256 556 l 190 556 q 182 565 182 556 l 182 650 q 185 657 182 654 l 483 954 q 490 957 486 957 l 561 957 q 571 947 571 957 l 571 875 m 165 567 q 163 560 165 563 l 86 485 q 72 485 79 478 l 49 510 q 46 517 46 513 l 46 947 q 51 957 46 954 q 61 954 56 960 l 165 850 l 165 567 m 456 421 q 449 418 453 418 l 168 418 q 161 421 164 418 l 111 471 q 111 485 104 478 l 161 536 q 168 539 164 539 l 449 539 q 456 536 453 539 l 506 485 q 506 471 513 478 l 456 421 m 165 110 q 163 104 165 104 l 61 3 q 51 0 56 -3 q 46 10 46 3 l 46 440 q 49 447 46 444 l 72 472 q 86 472 79 479 l 163 396 q 165 389 165 393 l 165 110 z "},"M":{"ha":692,"x_min":40,"x_max":643,"o":"m 525 104 q 522 111 522 107 l 522 390 q 525 397 522 394 l 601 474 q 615 474 608 481 l 640 449 q 643 442 643 446 l 643 10 q 638 0 643 3 q 626 3 632 -3 l 525 104 m 643 518 q 640 511 643 514 l 615 485 q 601 485 608 478 l 525 561 q 522 568 522 564 l 522 821 q 525 828 522 825 l 626 931 q 638 933 632 936 q 643 924 643 931 l 643 518 m 346 460 q 332 460 339 453 l 281 511 q 278 518 278 514 l 278 811 q 288 821 278 821 l 390 821 q 400 811 400 821 l 400 518 q 397 511 400 514 l 346 460 m 514 840 q 507 838 511 838 l 178 838 q 171 840 174 838 l 68 942 q 66 953 64 947 q 75 958 68 958 l 608 958 q 618 953 615 958 q 615 942 621 947 l 514 840 m 161 568 q 158 561 161 564 l 82 485 q 68 485 75 478 l 43 511 q 40 518 40 514 l 40 924 q 46 933 40 931 q 57 931 51 936 l 158 828 q 161 821 161 825 l 161 568 m 57 3 q 46 0 51 -3 q 40 10 40 3 l 40 442 q 43 449 40 446 l 68 474 q 82 474 75 481 l 158 397 q 161 390 161 394 l 161 111 q 158 104 161 107 l 57 3 z "},"N":{"ha":621,"x_min":47,"x_max":572,"o":"m 544 3 q 532 3 538 -4 l 456 79 q 453 86 453 82 l 453 389 q 456 396 453 393 l 532 472 q 544 472 538 478 l 569 447 q 572 440 572 444 l 572 35 q 569 28 572 31 l 544 3 m 544 485 q 532 485 538 478 l 456 561 q 453 568 453 564 l 453 871 q 456 878 453 875 l 532 954 q 544 954 538 960 l 569 929 q 572 922 572 926 l 572 517 q 569 510 572 513 l 544 485 m 436 568 q 426 558 436 558 l 385 558 l 186 756 q 183 763 183 758 l 183 871 q 192 881 183 881 l 228 881 q 235 878 232 881 l 433 679 q 436 672 436 676 l 436 568 m 88 485 q 74 485 81 478 l 50 510 q 47 517 47 513 l 47 922 q 50 929 47 926 l 74 954 q 88 954 81 961 l 164 878 q 167 871 167 875 l 167 568 q 164 561 167 564 l 88 485 m 88 3 q 74 3 81 -4 l 50 28 q 47 35 47 31 l 47 440 q 50 447 47 444 l 74 472 q 88 472 81 479 l 164 396 q 167 389 167 393 l 167 86 q 164 79 167 82 l 88 3 z "},"L":{"ha":567,"x_min":44,"x_max":549,"o":"m 88 485 q 74 485 81 478 l 47 511 q 44 518 44 514 l 44 949 q 50 958 44 956 q 61 956 56 961 l 165 851 l 165 568 q 163 561 165 564 l 88 485 m 81 0 q 71 6 74 0 q 74 17 68 11 l 175 118 q 182 121 178 121 l 435 121 q 442 118 439 121 l 543 17 q 546 6 549 11 q 536 0 543 0 l 81 0 m 61 29 q 50 26 56 24 q 44 35 44 28 l 44 442 q 47 449 44 446 l 74 474 q 88 474 81 481 l 163 397 q 165 390 165 394 l 165 138 q 163 131 165 133 l 61 29 z "},"O":{"ha":621,"x_min":46,"x_max":572,"o":"m 543 54 q 531 54 536 47 l 454 129 q 451 136 451 132 l 451 390 q 454 397 451 394 l 531 474 q 543 474 536 479 l 569 449 q 572 442 572 446 l 572 86 q 569 79 572 82 l 543 54 m 543 485 q 531 485 536 478 l 454 561 q 451 568 451 564 l 451 822 q 454 829 451 826 l 531 904 q 543 904 536 910 l 569 879 q 572 872 572 876 l 572 518 q 569 511 572 514 l 543 485 m 443 840 q 436 838 440 838 l 182 838 q 175 840 178 838 l 99 917 q 99 931 92 924 l 124 956 q 131 958 126 958 l 486 958 q 493 956 490 958 l 518 931 q 518 917 525 924 l 443 840 m 88 485 q 74 485 81 478 l 49 511 q 46 518 46 514 l 46 872 q 49 879 46 876 l 74 904 q 88 904 81 911 l 164 829 q 167 822 167 826 l 167 568 q 164 561 167 564 l 88 485 m 88 54 q 74 54 81 47 l 49 79 q 46 86 46 82 l 46 442 q 49 449 46 446 l 74 474 q 88 474 81 481 l 164 397 q 167 390 167 394 l 167 136 q 164 129 167 132 l 88 54 m 493 3 q 486 0 490 0 l 131 0 q 124 3 126 0 l 99 29 q 99 42 92 35 l 175 118 q 182 121 178 121 l 436 121 q 443 118 440 121 l 518 42 q 518 29 524 35 l 493 3 z "},"P":{"ha":607,"x_min":44,"x_max":571,"o":"m 542 485 q 529 485 535 478 l 453 561 q 450 568 450 564 l 450 821 q 453 828 450 825 l 529 904 q 542 904 535 910 l 568 878 q 571 871 571 875 l 571 517 q 568 510 571 513 l 542 485 m 442 840 q 435 838 439 838 l 181 838 q 174 840 176 838 l 157 857 q 113 898 138 875 q 72 940 89 921 q 70 951 68 946 q 79 957 72 957 l 485 957 q 492 954 489 957 l 518 929 q 518 915 525 922 l 442 840 m 86 485 q 72 485 79 478 l 47 510 q 44 517 44 513 l 44 922 q 49 932 44 929 q 60 929 54 935 l 163 828 q 165 821 165 825 l 165 568 q 163 561 165 564 l 86 485 m 506 485 q 506 471 513 478 l 454 421 q 447 418 451 418 l 168 418 q 161 421 164 418 l 110 471 q 110 485 103 478 l 161 536 q 168 539 164 539 l 447 539 q 454 536 451 539 l 506 485 m 60 3 q 49 0 54 -3 q 44 10 44 3 l 44 440 q 47 447 44 444 l 72 472 q 86 472 79 479 l 163 396 q 165 389 165 393 l 165 110 q 163 104 165 104 l 60 3 z "},"Q":{"ha":621,"x_min":49,"x_max":574,"o":"m 453 17 q 456 6 458 11 q 446 0 453 0 l 132 0 q 125 3 128 0 l 101 29 q 101 42 94 35 l 178 118 q 185 121 181 121 l 344 121 q 351 118 349 121 l 453 17 m 574 10 q 564 0 574 0 l 493 0 q 486 3 489 0 l 335 154 q 332 161 332 157 l 332 244 q 342 254 332 254 l 401 254 q 408 251 406 254 l 574 86 l 574 10 m 454 226 l 454 390 q 457 397 454 394 l 532 474 q 544 474 538 479 l 571 449 q 574 442 574 446 l 574 128 q 568 118 574 121 q 557 121 563 115 l 454 226 m 544 485 q 532 485 538 478 l 457 561 q 454 568 454 564 l 454 822 q 457 829 454 826 l 532 906 q 544 906 538 911 l 571 879 q 574 872 574 876 l 574 518 q 571 511 574 514 l 544 485 m 444 840 q 438 838 442 838 l 185 838 q 178 840 181 838 l 101 917 q 101 931 94 924 l 125 956 q 132 958 128 958 l 488 958 q 494 956 492 958 l 521 931 q 521 917 528 924 l 444 840 m 89 485 q 75 485 82 478 l 51 511 q 49 518 49 514 l 49 872 q 51 879 49 876 l 75 906 q 89 906 82 913 l 165 829 q 168 822 168 826 l 168 568 q 165 561 168 564 l 89 485 m 89 54 q 75 54 82 47 l 51 79 q 49 86 49 82 l 49 442 q 51 449 49 446 l 75 474 q 89 474 82 481 l 165 397 q 168 390 168 394 l 168 138 q 165 131 168 133 l 89 54 z "},"R":{"ha":621,"x_min":47,"x_max":572,"o":"m 572 10 q 563 0 572 0 l 490 0 q 483 3 486 0 l 186 303 q 183 310 183 306 l 183 393 q 192 403 183 403 l 253 403 q 260 400 257 403 l 569 89 q 572 82 572 86 l 572 10 m 63 3 q 52 0 57 -3 q 47 10 47 3 l 47 442 q 50 449 47 446 l 74 474 q 88 474 81 481 l 164 397 q 167 390 167 394 l 167 111 q 164 104 167 107 l 63 3 m 443 840 q 436 838 440 838 l 183 838 q 176 840 179 838 l 74 942 q 71 953 68 947 q 81 958 74 958 l 486 958 q 493 956 490 958 l 519 931 q 519 917 526 924 l 443 840 m 544 485 q 532 485 538 478 l 456 561 q 453 568 453 564 l 453 821 q 456 828 453 825 l 532 904 q 544 904 538 910 l 569 879 q 572 872 572 876 l 572 514 l 544 485 m 507 486 q 507 472 514 479 l 457 422 q 450 419 454 419 l 169 419 q 163 422 165 419 l 113 472 q 113 486 106 479 l 163 536 q 169 539 165 539 l 450 539 q 457 536 454 539 l 507 486 m 88 485 q 74 485 81 478 l 50 511 q 47 518 47 514 l 47 924 q 52 933 47 931 q 63 931 57 936 l 167 825 l 167 568 q 164 561 167 564 l 88 485 z "},"S":{"ha":621,"x_min":43,"x_max":575,"o":"m 465 838 l 182 838 q 175 840 178 838 l 99 917 q 99 931 92 924 l 124 954 q 131 957 126 957 l 563 957 q 572 951 569 957 q 569 940 575 946 l 465 838 m 88 485 q 74 485 81 478 l 49 511 q 46 518 46 514 l 46 872 q 49 879 46 876 l 74 904 q 88 904 81 911 l 163 828 q 165 821 165 825 l 165 568 q 163 561 165 564 l 88 485 m 456 421 q 449 418 453 418 l 168 418 q 161 421 164 418 l 111 472 q 111 486 104 479 l 161 536 q 168 539 164 539 l 449 539 q 456 536 453 539 l 506 486 q 506 472 513 479 l 456 421 m 543 53 q 531 53 536 46 l 454 129 q 451 136 451 132 l 451 389 q 454 396 451 393 l 531 472 q 543 472 536 478 l 569 449 q 572 442 572 446 l 572 86 q 569 79 572 82 l 543 53 m 493 3 q 486 0 490 0 l 54 0 q 45 6 47 0 q 49 17 43 11 l 149 117 q 156 119 151 119 l 183 121 l 435 121 q 442 118 439 121 l 518 42 q 518 29 524 35 l 493 3 z "},"T":{"ha":604,"x_min":14,"x_max":586,"o":"m 331 3 q 318 3 324 -4 l 242 79 q 239 86 239 82 l 239 389 q 242 396 239 393 l 318 472 q 331 472 324 478 l 357 449 q 360 442 360 446 l 360 35 q 358 32 358 33 q 357 29 357 29 l 331 3 m 331 485 q 318 485 324 478 l 242 561 q 239 568 239 564 l 239 814 q 249 824 239 824 l 350 824 q 360 814 360 824 l 360 518 q 357 511 360 514 l 331 485 m 579 931 q 579 917 586 924 l 503 840 q 496 838 500 838 l 104 838 q 97 840 100 838 l 21 917 q 21 931 14 924 l 46 954 q 51 957 49 957 l 550 957 l 579 931 z "},"U":{"ha":621,"x_min":43,"x_max":569,"o":"m 78 0 q 68 6 71 0 q 71 17 65 11 l 172 117 q 179 119 175 119 l 433 119 q 440 117 438 119 l 540 17 q 544 6 546 11 q 535 0 542 0 l 78 0 m 569 35 q 564 26 569 28 q 553 29 558 24 l 451 129 q 449 136 449 132 l 449 389 q 451 396 449 393 l 528 472 q 540 472 533 478 l 567 449 q 569 442 569 446 l 569 35 m 540 485 q 528 485 533 478 l 451 561 q 449 568 449 564 l 449 847 q 451 854 449 851 l 553 954 q 564 957 558 960 q 569 947 569 954 l 569 518 q 567 511 569 514 l 540 485 m 85 485 q 71 485 78 478 l 46 511 q 43 518 43 514 l 43 947 q 48 957 43 954 q 58 954 53 960 l 161 854 q 164 847 164 851 l 164 568 q 161 561 164 564 l 85 485 m 164 136 q 161 129 164 132 l 58 29 q 48 26 53 24 q 43 35 43 28 l 43 442 q 46 449 43 446 l 71 472 q 85 472 78 479 l 161 396 q 164 389 164 393 l 164 136 z "},"V":{"ha":610,"x_min":43,"x_max":568,"o":"m 563 440 q 561 433 563 435 q 460 220 510 326 q 361 6 410 114 q 353 0 358 0 l 322 0 q 313 10 313 0 l 313 182 q 320 202 313 185 q 339 245 328 219 q 365 301 350 271 q 393 358 379 331 l 431 439 q 436 444 431 444 l 538 481 q 550 474 547 483 l 563 440 m 540 485 q 528 485 533 478 l 451 561 q 449 568 449 564 l 449 851 l 551 956 q 563 958 557 961 q 568 949 568 956 l 568 514 l 540 485 m 83 485 q 69 485 76 478 l 46 511 q 43 518 43 514 l 43 949 q 48 958 43 956 q 58 956 53 961 l 163 851 l 163 568 q 160 561 163 564 l 83 485 m 299 10 q 289 0 299 0 l 258 0 q 250 6 253 0 l 50 433 l 50 440 l 61 474 q 74 481 64 483 l 178 443 l 218 358 q 245 302 231 332 q 272 246 260 272 q 291 201 283 219 q 299 182 299 183 l 299 10 z "},"W":{"ha":692,"x_min":42,"x_max":644,"o":"m 617 485 q 603 485 610 478 l 526 561 q 524 568 524 564 l 524 847 q 526 854 524 851 l 628 956 q 639 958 633 961 q 644 949 644 956 l 644 518 q 642 511 644 514 l 617 485 m 644 35 q 639 26 644 28 q 628 29 633 24 l 526 131 q 524 138 524 133 l 524 390 q 526 397 524 394 l 603 474 q 617 474 610 481 l 642 449 q 644 442 644 446 l 644 35 m 76 0 q 67 6 69 0 q 69 17 65 11 l 172 118 q 179 121 175 121 l 508 121 q 515 118 513 121 l 617 17 q 619 6 622 11 q 610 0 617 0 l 76 0 m 296 138 q 286 147 286 138 l 286 442 q 289 449 286 446 l 340 499 q 353 499 346 504 l 404 449 q 407 442 407 446 l 407 147 q 397 138 407 138 l 296 138 m 83 485 q 69 485 76 478 l 44 511 q 42 518 42 514 l 42 949 q 47 958 42 956 q 58 956 53 961 l 160 854 q 163 847 163 851 l 163 568 q 160 561 163 564 l 83 485 m 163 138 q 160 131 163 133 l 58 29 q 47 26 53 24 q 42 35 42 28 l 42 442 q 44 449 42 446 l 69 474 q 83 474 76 481 l 160 397 q 163 390 163 394 l 163 138 z "},"X":{"ha":578,"x_min":33,"x_max":544,"o":"m 544 40 l 529 7 q 521 0 525 0 l 439 0 q 431 6 433 0 q 417 37 428 11 q 392 98 407 63 q 360 174 376 133 q 328 248 343 214 q 305 304 314 282 q 296 326 296 326 l 296 463 q 306 472 296 472 l 358 472 q 367 467 364 472 l 544 40 m 282 326 q 273 304 282 326 q 249 248 264 282 q 218 174 235 214 q 186 98 201 133 q 160 37 171 63 q 147 6 150 11 q 139 0 144 0 l 57 0 q 47 7 50 0 l 33 40 l 211 467 q 219 472 214 472 l 272 472 q 282 463 282 472 l 282 326 m 282 496 q 272 486 282 486 l 219 486 q 211 492 214 486 l 33 917 l 47 950 q 57 957 50 957 l 139 957 q 147 951 144 957 q 160 920 150 946 q 186 859 171 894 q 218 783 201 824 q 249 710 235 743 q 273 653 264 676 q 282 631 282 631 l 282 496 m 544 917 l 367 492 q 358 486 364 486 l 306 486 q 296 496 296 486 l 296 631 q 305 653 296 631 q 328 710 314 676 q 360 783 343 743 q 392 859 376 824 q 417 920 407 894 q 431 951 428 946 q 439 957 433 957 l 521 957 q 528 951 528 957 l 544 917 z "},"Y":{"ha":621,"x_min":42,"x_max":571,"o":"m 542 485 q 529 485 535 478 l 453 561 q 450 568 450 564 l 450 846 q 453 853 450 850 l 554 954 q 565 957 560 960 q 571 947 571 954 l 571 517 q 568 510 571 513 l 542 485 m 542 53 q 529 53 535 46 l 453 129 q 450 136 450 132 l 450 389 q 453 396 450 393 l 529 472 q 542 472 535 478 l 568 447 q 571 440 571 444 l 571 86 q 568 79 571 82 l 542 53 m 492 3 q 485 0 489 0 l 53 0 q 44 6 46 0 q 47 17 42 11 l 151 119 l 435 119 q 442 117 439 119 l 518 40 q 518 28 524 33 l 492 3 m 454 421 q 447 418 451 418 l 167 418 q 160 421 163 418 l 110 471 q 110 485 103 478 l 160 536 q 167 539 163 539 l 447 539 q 454 536 451 539 l 504 485 q 504 471 511 478 l 454 421 m 85 485 q 71 485 78 478 l 47 510 q 44 517 44 513 l 44 947 q 49 957 44 954 q 60 954 54 960 l 164 850 l 164 568 q 161 561 164 564 l 85 485 z "},"Z":{"ha":586,"x_min":24,"x_max":550,"o":"m 544 40 q 544 28 550 33 l 519 3 q 513 0 517 0 l 78 0 q 71 3 74 0 l 31 43 q 29 54 26 47 l 56 114 q 64 119 58 119 l 461 119 q 468 117 465 119 l 544 40 m 319 411 q 319 407 319 410 q 318 403 318 404 l 199 140 q 190 135 196 135 l 79 135 q 71 149 65 135 l 206 444 l 253 472 l 288 472 q 296 467 293 472 l 319 411 m 469 731 q 424 628 449 681 q 381 539 400 575 l 381 540 q 358 522 376 535 q 325 499 340 510 l 308 485 l 261 485 q 251 492 254 485 l 240 521 l 376 817 q 385 822 379 822 l 496 822 q 504 808 510 822 l 469 731 m 519 843 q 511 838 517 838 l 113 838 q 107 840 110 838 l 31 917 q 31 931 24 924 l 56 954 q 63 957 58 957 l 496 957 q 503 954 500 957 l 544 913 q 546 901 549 908 l 519 843 z "},"D":{"ha":621,"x_min":44,"x_max":571,"o":"m 60 29 q 49 26 54 24 q 44 35 44 28 l 44 442 q 47 449 44 446 l 72 472 q 86 472 79 479 l 163 396 q 165 389 165 393 l 165 136 q 163 129 165 132 l 60 29 m 492 3 q 485 0 489 0 l 79 0 q 69 6 72 0 q 72 17 67 11 l 174 117 q 181 119 176 119 l 435 119 q 442 117 439 119 l 517 42 q 517 29 522 35 l 492 3 m 542 53 q 529 53 535 46 l 453 129 q 450 136 450 132 l 450 389 q 453 396 450 393 l 529 472 q 542 472 535 478 l 568 449 q 571 442 571 446 l 571 86 q 568 79 571 82 l 542 53 m 542 485 q 529 485 535 478 l 453 561 q 450 568 450 564 l 450 821 q 453 828 450 825 l 529 904 q 542 904 535 910 l 568 878 q 571 871 571 875 l 571 518 q 568 511 571 514 l 542 485 m 442 840 q 435 838 439 838 l 181 838 q 174 840 176 838 l 72 940 q 69 951 67 946 q 79 957 72 957 l 485 957 q 492 954 489 957 l 517 931 q 517 917 524 924 l 442 840 m 86 485 q 72 485 79 478 l 47 511 q 44 518 44 514 l 44 924 q 49 933 44 931 q 60 931 54 936 l 163 828 q 165 821 165 825 l 165 568 q 163 561 165 564 l 86 485 z "},"a":{"ha":621,"x_min":44,"x_max":567,"o":"m 450 103 q 447 110 447 106 l 447 386 q 450 393 447 390 l 526 469 q 539 469 532 475 l 564 443 q 567 436 567 440 l 567 10 q 561 0 567 3 q 550 3 556 -3 l 450 103 m 567 513 q 564 506 567 508 l 539 481 q 526 481 532 474 l 450 556 q 447 563 447 558 l 447 815 q 450 821 447 818 l 550 921 q 561 924 556 926 q 567 915 567 922 l 567 513 m 438 832 q 431 829 435 829 l 179 829 q 176 831 178 831 q 174 832 174 831 l 72 933 q 69 944 67 939 q 79 950 72 950 l 532 950 q 542 944 539 950 q 539 933 544 939 l 438 832 m 164 563 q 161 556 164 558 l 85 481 q 72 481 78 474 l 47 506 q 44 513 44 508 l 44 915 q 50 924 44 922 q 61 921 56 926 l 161 821 q 164 815 164 818 l 164 563 m 451 418 q 444 415 449 415 l 167 415 q 160 418 163 415 l 110 468 q 110 481 103 474 l 160 532 q 167 535 163 535 l 444 535 q 451 532 449 535 l 501 481 q 501 468 508 474 l 451 418 m 61 3 q 50 0 56 -3 q 44 10 44 3 l 44 436 q 47 443 44 440 l 72 469 q 85 469 78 474 l 161 393 q 164 386 164 390 l 164 110 q 161 103 164 106 l 61 3 z "},"b":{"ha":621,"x_min":46,"x_max":569,"o":"m 490 3 q 483 0 488 0 l 81 0 q 72 6 74 0 q 75 17 69 11 l 175 117 q 178 118 176 118 q 181 119 179 118 l 433 119 q 440 117 438 119 l 515 40 q 515 26 522 33 l 490 3 m 540 53 q 528 53 533 46 l 451 128 q 449 135 449 131 l 449 386 q 451 393 449 390 l 528 469 q 540 469 533 475 l 567 443 q 569 436 569 440 l 569 83 q 567 76 569 79 l 540 53 m 540 481 q 528 481 533 474 l 451 556 q 449 563 449 558 l 449 815 q 451 821 449 818 l 528 897 q 540 897 533 904 l 567 871 q 569 865 569 868 l 569 513 q 567 506 569 508 l 540 481 m 440 832 q 433 829 438 829 l 181 829 q 178 831 179 831 q 175 832 175 831 l 149 858 q 111 895 131 875 q 75 933 92 915 q 72 944 71 939 q 81 950 74 950 l 483 950 q 490 947 488 950 l 515 921 q 515 908 522 915 l 440 832 m 88 481 q 75 481 81 474 l 49 506 q 46 513 46 508 l 46 915 q 51 924 46 922 q 63 921 57 926 l 164 821 q 167 815 167 818 l 167 563 q 164 556 167 558 l 88 481 m 453 418 q 446 415 450 415 l 169 415 q 163 418 165 415 l 111 468 q 111 481 104 474 l 163 532 q 169 535 165 535 l 446 535 q 453 532 450 535 l 504 481 q 504 468 511 474 l 453 418 m 63 26 q 51 24 57 22 q 46 33 46 26 l 46 436 q 49 443 46 440 l 75 469 q 88 469 81 474 l 164 393 q 167 386 167 390 l 167 135 q 164 128 167 131 l 63 26 z "},"c":{"ha":563,"x_min":44,"x_max":544,"o":"m 435 831 l 179 831 q 174 833 174 831 l 97 910 q 97 922 90 915 l 124 947 q 129 950 124 950 l 532 950 q 542 944 539 950 q 539 933 544 939 l 435 831 m 85 481 q 72 481 78 474 l 47 506 q 44 513 44 508 l 44 865 q 47 871 44 868 l 72 897 q 85 897 78 904 l 161 821 q 164 815 164 818 l 164 564 q 161 557 164 560 l 85 481 m 539 17 q 542 6 544 11 q 532 0 539 0 l 129 0 q 124 3 124 0 l 97 26 q 97 40 90 33 l 174 117 q 179 119 174 119 l 431 119 q 438 117 435 119 l 539 17 m 85 53 q 72 53 78 46 l 47 78 q 44 85 44 81 l 44 438 q 47 444 44 442 l 72 469 q 85 469 78 475 l 161 393 q 164 386 164 390 l 164 135 q 161 128 164 131 l 85 53 z "},"d":{"ha":621,"x_min":44,"x_max":568,"o":"m 61 28 q 50 26 56 24 q 44 35 44 28 l 44 438 q 47 444 44 442 l 74 469 q 86 469 79 474 l 163 393 q 165 386 165 390 l 165 135 q 163 128 165 131 l 61 28 m 489 3 q 482 0 486 0 l 81 0 q 71 6 74 0 q 74 17 68 11 l 174 117 q 176 118 175 118 q 179 119 178 118 l 432 119 q 439 117 436 119 l 514 42 q 514 28 521 35 l 489 3 m 539 53 q 526 53 532 46 l 450 128 q 447 135 447 131 l 447 386 q 450 393 447 390 l 526 469 q 539 469 532 475 l 565 444 q 568 438 568 442 l 568 85 q 565 78 568 81 l 539 53 m 539 481 q 526 481 532 474 l 450 557 q 447 564 447 560 l 447 815 q 450 821 447 818 l 526 897 q 539 897 532 904 l 565 871 q 568 865 568 868 l 568 514 q 565 507 568 510 l 539 481 m 439 833 q 432 831 436 831 l 179 831 q 176 832 178 832 q 174 833 174 832 l 74 933 q 71 944 68 939 q 81 950 74 950 l 482 950 q 489 947 486 950 l 514 922 q 514 910 519 915 l 439 833 m 86 481 q 74 481 79 474 l 47 507 q 44 514 44 510 l 44 917 q 50 926 44 924 q 61 922 56 928 l 163 821 q 165 815 165 818 l 165 564 q 163 557 165 560 l 86 481 z "},"e":{"ha":572,"x_min":46,"x_max":546,"o":"m 439 833 q 432 831 436 831 l 181 831 q 174 833 176 831 l 75 935 q 72 946 69 940 q 81 951 74 951 l 533 951 q 543 946 540 951 q 540 935 546 940 l 439 833 m 165 564 q 163 557 165 560 l 88 481 q 75 481 81 474 l 49 507 q 46 514 46 510 l 46 917 q 51 926 46 924 q 63 922 57 928 l 163 822 q 165 817 165 819 l 165 564 m 503 482 q 503 469 510 475 l 453 419 q 446 417 450 417 l 168 417 q 161 419 164 417 l 111 469 q 111 482 104 475 l 161 532 q 168 535 164 535 l 446 535 q 453 532 450 535 l 503 482 m 165 132 l 63 28 q 51 26 57 24 q 46 35 46 28 l 46 438 q 49 444 46 442 l 75 471 q 88 471 81 476 l 163 394 q 165 388 165 392 l 165 132 m 81 0 q 72 6 74 0 q 75 17 69 11 l 174 118 q 181 121 176 121 l 432 121 q 439 118 436 121 l 540 17 q 543 6 546 11 q 533 0 540 0 l 81 0 z "},"f":{"ha":561,"x_min":43,"x_max":543,"o":"m 163 110 q 160 103 163 106 l 60 3 q 49 0 54 -3 q 43 10 43 3 l 43 436 q 46 443 43 440 l 72 469 q 85 469 78 475 l 160 393 q 163 386 163 390 l 163 110 m 450 418 q 443 415 447 415 l 165 415 q 158 418 161 415 l 108 468 q 108 481 101 474 l 158 532 q 165 535 161 535 l 443 535 q 450 532 447 535 l 500 481 q 500 468 507 474 l 450 418 m 436 832 q 429 829 433 829 l 178 829 q 172 832 172 829 l 72 933 q 69 944 67 939 q 78 950 71 950 l 531 950 q 540 944 538 950 q 538 933 543 939 l 436 832 m 163 563 q 160 556 163 558 l 85 481 q 72 481 78 474 l 46 506 q 43 513 43 508 l 43 915 q 49 924 43 922 q 60 921 54 926 l 160 821 q 163 815 163 818 l 163 563 z "},"g":{"ha":621,"x_min":46,"x_max":575,"o":"m 490 3 q 483 0 488 0 l 132 0 q 125 3 128 0 l 99 28 q 99 42 92 35 l 175 117 q 182 119 178 119 l 432 119 q 439 117 436 119 l 515 42 q 515 28 522 35 l 490 3 m 540 53 q 528 53 533 46 l 451 128 q 449 135 449 131 l 449 386 q 451 393 449 390 l 528 469 q 540 469 533 475 l 567 444 q 569 438 569 442 l 569 85 q 567 78 569 81 l 540 53 m 465 831 l 182 831 q 175 833 178 831 l 99 910 q 99 922 92 915 l 125 947 q 132 950 128 950 l 563 950 q 572 944 569 950 q 569 933 575 939 l 465 831 m 88 53 q 75 53 81 46 l 49 78 q 46 85 46 81 l 46 438 q 49 444 46 442 l 75 469 q 88 469 81 474 l 163 393 q 165 386 165 390 l 165 135 q 163 128 165 131 l 88 53 m 88 481 q 75 481 81 474 l 49 507 q 46 514 46 510 l 46 865 q 49 871 46 868 l 75 897 q 88 897 81 903 l 163 821 q 165 815 165 818 l 165 564 q 163 557 165 560 l 88 481 m 453 418 q 446 415 450 415 l 286 415 q 281 418 281 415 l 231 469 q 231 482 224 475 l 281 532 q 286 535 281 535 l 446 535 q 453 532 450 535 l 503 482 q 503 469 510 475 l 453 418 z "},"h":{"ha":621,"x_min":47,"x_max":569,"o":"m 450 107 l 450 388 q 453 394 450 392 l 528 471 q 542 471 535 475 l 567 444 q 569 438 569 442 l 569 10 q 564 0 569 3 q 553 3 558 -3 l 450 107 m 569 514 q 567 507 569 510 l 542 481 q 528 481 535 474 l 453 557 q 450 564 450 560 l 450 844 l 553 949 q 564 951 558 954 q 569 942 569 949 l 569 514 m 167 564 q 164 557 167 560 l 88 481 q 75 481 81 474 l 50 507 q 47 514 47 510 l 47 942 q 53 951 47 949 q 64 949 58 954 l 167 844 l 167 564 m 454 419 q 447 417 451 417 l 169 417 q 163 419 165 417 l 113 469 q 113 482 106 475 l 163 532 q 169 535 165 535 l 447 535 q 454 532 451 535 l 504 482 q 504 469 511 475 l 454 419 m 64 3 q 53 0 58 -3 q 47 10 47 3 l 47 438 q 50 444 47 442 l 75 471 q 88 471 81 475 l 164 394 q 167 388 167 392 l 167 111 q 164 104 167 107 l 64 3 z "},"i":{"ha":201,"x_min":38,"x_max":158,"o":"m 129 481 q 117 481 122 474 l 40 557 q 38 564 38 560 l 38 865 q 40 871 38 868 l 117 947 q 129 947 122 953 l 156 921 q 158 915 158 918 l 158 513 q 156 506 158 508 l 129 481 m 129 3 q 117 3 122 -4 l 40 78 q 38 85 38 81 l 38 386 q 40 393 38 390 l 117 469 q 129 469 122 474 l 156 443 q 158 436 158 440 l 158 33 q 156 26 158 29 l 129 3 z "},"j":{"ha":621,"x_min":46,"x_max":568,"o":"m 540 481 q 528 481 533 474 l 451 557 q 449 564 449 560 l 449 840 q 451 847 449 844 l 551 947 q 563 950 557 953 q 568 940 568 947 l 568 510 l 540 481 m 451 128 q 449 135 449 131 l 449 386 q 451 393 449 390 l 528 469 q 540 469 533 475 l 565 444 q 568 438 568 442 l 568 35 q 563 26 568 28 q 551 28 557 24 l 451 128 m 81 0 q 71 6 74 0 q 74 17 68 11 l 175 118 q 178 119 176 119 q 181 121 179 119 l 432 121 q 439 118 436 121 l 540 17 q 543 6 546 11 q 533 0 540 0 l 81 0 m 63 28 q 51 26 57 24 q 46 35 46 28 l 46 378 q 51 388 46 385 q 63 385 57 390 l 163 285 q 165 278 165 282 l 165 135 q 163 128 165 131 l 63 28 z "},"k":{"ha":621,"x_min":46,"x_max":568,"o":"m 568 10 q 563 0 568 3 q 551 3 557 -3 l 451 103 q 449 110 449 106 l 449 386 q 451 393 449 390 l 528 469 q 540 469 533 475 l 565 443 q 568 436 568 440 l 568 10 m 568 868 q 567 865 567 867 q 565 863 565 863 l 257 554 q 250 551 254 551 l 190 551 q 181 561 181 551 l 181 644 q 183 651 181 649 l 481 947 q 488 950 483 950 l 558 950 q 568 940 568 950 l 568 868 m 165 563 q 163 556 165 558 l 86 481 q 74 481 79 474 l 49 506 q 46 513 46 508 l 46 940 q 51 950 46 947 q 63 947 57 953 l 165 843 l 165 563 m 453 418 q 446 415 450 415 l 168 415 q 161 418 164 415 l 111 468 q 111 481 104 474 l 161 532 q 168 535 164 535 l 446 535 q 453 532 450 535 l 503 481 q 503 468 510 474 l 453 418 m 165 110 q 163 103 165 106 l 63 3 q 51 0 57 -3 q 46 10 46 3 l 46 436 q 49 443 46 440 l 74 469 q 86 469 79 474 l 163 393 q 165 386 165 390 l 165 110 z "},"l":{"ha":567,"x_min":46,"x_max":546,"o":"m 88 481 q 75 481 81 474 l 49 507 q 46 514 46 510 l 46 942 q 51 951 46 949 q 63 949 57 954 l 165 844 l 165 564 q 163 557 165 560 l 88 481 m 81 0 q 72 6 74 0 q 75 17 69 11 l 174 118 q 181 121 176 121 l 432 121 q 439 118 436 121 l 540 17 q 543 6 546 11 q 533 0 540 0 l 81 0 m 63 28 q 51 26 57 24 q 46 35 46 28 l 46 438 q 49 444 46 442 l 75 471 q 88 471 81 476 l 163 394 q 165 388 165 392 l 165 136 q 163 129 165 132 l 63 28 z "},"m":{"ha":692,"x_min":42,"x_max":640,"o":"m 522 104 q 519 111 519 107 l 519 388 q 522 394 519 392 l 597 471 q 611 471 604 475 l 638 444 q 640 438 640 442 l 640 10 q 635 0 640 3 q 624 3 629 -3 l 522 104 m 640 514 q 638 507 640 510 l 611 481 q 597 481 604 474 l 522 557 q 519 564 519 560 l 519 815 q 522 821 519 818 l 624 922 q 635 926 629 928 q 640 917 640 924 l 640 514 m 344 457 q 331 457 338 450 l 281 507 q 278 514 278 510 l 278 806 q 288 815 278 815 l 389 815 q 397 806 397 815 l 397 514 q 397 510 397 513 q 396 507 396 508 l 344 457 m 511 833 q 504 831 508 831 l 178 831 q 171 833 174 831 l 69 935 q 67 946 64 940 q 76 951 69 951 l 604 951 q 614 946 611 951 q 611 935 617 940 l 511 833 m 161 564 q 158 557 161 560 l 83 481 q 69 481 76 474 l 44 507 q 42 514 42 510 l 42 917 q 47 926 42 924 q 57 922 51 928 l 158 821 q 161 815 161 818 l 161 564 m 57 3 q 47 0 51 -3 q 42 10 42 3 l 42 438 q 44 444 42 442 l 69 471 q 83 471 76 475 l 158 394 q 161 388 161 392 l 161 111 q 158 104 161 107 l 57 3 z "},"n":{"ha":621,"x_min":47,"x_max":569,"o":"m 542 3 q 528 3 535 -4 l 453 78 q 450 85 450 81 l 450 386 q 453 393 450 390 l 528 469 q 542 469 535 474 l 567 443 q 569 436 569 440 l 569 33 q 567 26 569 29 l 542 3 m 542 481 q 528 481 535 474 l 453 557 q 450 564 450 560 l 450 865 q 453 871 450 868 l 528 947 q 542 947 535 954 l 567 921 q 569 915 569 918 l 569 513 q 567 506 569 508 l 542 481 m 433 564 q 425 554 433 554 l 382 554 l 185 750 q 182 757 182 753 l 182 865 q 192 874 182 874 l 228 874 q 233 871 231 874 l 431 674 q 433 668 433 671 l 433 564 m 88 481 q 75 481 81 474 l 50 506 q 47 513 47 508 l 47 915 q 50 921 47 918 l 75 947 q 88 947 81 953 l 164 871 q 167 865 167 868 l 167 564 q 164 557 167 560 l 88 481 m 88 3 q 75 3 81 -4 l 50 26 q 47 33 47 29 l 47 436 q 50 443 47 440 l 75 469 q 88 469 81 474 l 164 393 q 167 386 167 390 l 167 85 q 164 78 167 81 l 88 3 z "},"o":{"ha":621,"x_min":46,"x_max":569,"o":"m 540 54 q 528 54 533 47 l 451 128 q 449 135 449 131 l 449 388 q 451 394 449 392 l 528 471 q 540 471 533 476 l 567 444 q 569 438 569 442 l 569 85 q 567 78 569 81 l 540 54 m 540 481 q 528 481 533 474 l 451 557 q 449 564 449 560 l 449 817 q 451 822 449 819 l 528 897 q 540 897 533 904 l 567 872 q 569 867 569 869 l 569 514 q 567 507 569 510 l 540 481 m 440 833 q 433 831 438 831 l 181 831 q 178 832 179 832 q 175 833 175 832 l 99 910 q 99 922 92 915 l 125 949 q 128 950 126 950 q 131 951 129 950 l 483 951 q 490 949 488 951 l 515 922 q 515 910 521 915 l 440 833 m 88 481 q 75 481 81 474 l 49 507 q 46 514 46 510 l 46 867 q 49 872 46 869 l 75 897 q 88 897 81 903 l 164 822 q 167 817 167 819 l 167 564 q 164 557 167 560 l 88 481 m 88 54 q 75 54 81 47 l 49 78 q 46 85 46 81 l 46 438 q 49 444 46 442 l 75 471 q 88 471 81 475 l 164 394 q 167 388 167 392 l 167 135 q 164 128 167 131 l 88 54 m 490 3 q 483 0 488 0 l 131 0 q 128 1 129 1 q 125 3 125 1 l 99 28 q 99 42 92 35 l 175 118 q 178 119 176 119 q 181 121 179 119 l 433 121 q 440 118 438 121 l 515 42 q 515 28 522 35 l 490 3 z "},"p":{"ha":607,"x_min":44,"x_max":568,"o":"m 539 481 q 526 481 532 474 l 450 557 q 447 564 447 560 l 447 815 q 450 821 447 818 l 526 897 q 539 897 532 904 l 565 871 q 568 865 568 868 l 568 513 q 565 506 568 508 l 539 481 m 439 833 q 432 831 436 831 l 179 831 q 176 832 178 832 q 174 833 174 832 l 157 850 q 113 891 138 868 q 74 933 89 914 q 72 944 69 939 q 81 950 74 950 l 482 950 q 489 947 486 950 l 515 921 q 515 908 522 915 l 439 833 m 86 481 q 74 481 79 474 l 47 506 q 44 513 44 508 l 44 915 q 50 924 44 922 q 61 921 56 926 l 163 821 q 165 815 165 818 l 165 564 q 163 557 165 560 l 86 481 m 503 481 q 503 468 510 474 l 451 418 q 444 415 449 415 l 168 415 q 161 418 164 415 l 110 468 q 110 481 103 474 l 161 532 q 168 535 164 535 l 444 535 q 451 532 449 535 l 503 481 m 61 3 q 50 0 56 -3 q 44 10 44 3 l 44 436 q 47 443 44 440 l 74 469 q 86 469 79 474 l 163 393 q 165 386 165 390 l 165 110 q 163 103 165 106 l 61 3 z "},"q":{"ha":621,"x_min":49,"x_max":571,"o":"m 450 17 q 453 6 456 11 q 443 0 450 0 l 132 0 q 129 1 131 1 q 126 3 126 1 l 101 28 q 101 42 94 35 l 178 118 q 183 121 181 121 l 343 121 q 350 118 347 121 l 450 17 m 571 10 q 561 0 571 0 l 490 0 q 483 3 486 0 l 333 153 q 331 160 331 156 l 331 243 q 340 253 331 253 l 400 253 q 407 250 404 253 l 571 85 l 571 10 m 451 224 l 451 388 q 454 394 451 392 l 529 471 q 542 471 535 476 l 568 444 q 571 438 571 442 l 571 126 q 565 117 571 119 q 554 121 560 115 l 451 224 m 542 481 q 529 481 535 474 l 454 557 q 451 564 451 560 l 451 817 q 454 822 451 819 l 529 899 q 542 899 535 906 l 568 872 q 571 867 571 869 l 571 514 q 568 507 571 510 l 542 481 m 442 833 q 435 831 439 831 l 183 831 q 178 833 181 831 l 101 910 q 101 922 94 915 l 126 949 q 129 950 128 950 q 132 951 131 950 l 485 951 q 492 949 489 951 l 518 922 q 518 910 524 915 l 442 833 m 89 481 q 76 481 82 474 l 51 507 q 49 514 49 510 l 49 867 q 51 872 49 869 l 76 899 q 89 899 82 904 l 165 822 q 168 817 168 819 l 168 564 q 165 557 168 560 l 89 481 m 89 54 q 76 54 82 47 l 51 78 q 49 85 49 81 l 49 438 q 51 444 49 442 l 76 471 q 89 471 82 475 l 165 394 q 168 388 168 392 l 168 136 q 165 129 168 132 l 89 54 z "},"r":{"ha":621,"x_min":47,"x_max":569,"o":"m 569 10 q 560 0 569 0 l 488 0 q 481 3 483 0 l 185 300 q 182 307 182 303 l 182 390 q 192 400 182 400 l 251 400 q 258 397 256 400 l 567 88 q 569 81 569 85 l 569 10 m 64 3 q 53 0 58 -3 q 47 10 47 3 l 47 438 q 50 444 47 442 l 75 471 q 88 471 81 475 l 164 394 q 167 388 167 392 l 167 111 q 164 104 167 107 l 64 3 m 440 833 q 433 831 438 831 l 182 831 q 176 833 179 831 l 75 935 q 72 946 69 940 q 82 951 75 951 l 483 951 q 490 949 488 951 l 517 922 q 517 910 522 915 l 440 833 m 542 481 q 528 481 535 474 l 453 557 q 450 564 450 560 l 450 815 q 453 821 450 818 l 528 897 q 542 897 535 904 l 567 872 q 569 867 569 869 l 569 510 l 542 481 m 504 482 q 504 469 511 475 l 454 419 q 447 417 451 417 l 169 417 q 163 419 165 417 l 113 469 q 113 482 106 475 l 163 532 q 169 535 165 535 l 447 535 q 454 532 451 535 l 504 482 m 88 481 q 75 481 81 474 l 50 507 q 47 514 47 510 l 47 917 q 53 926 47 924 q 64 922 58 928 l 167 818 l 167 564 q 164 557 167 560 l 88 481 z "},"s":{"ha":621,"x_min":43,"x_max":572,"o":"m 463 831 l 181 831 q 178 832 179 832 q 175 833 175 832 l 99 910 q 99 922 92 915 l 125 947 q 128 949 126 949 q 131 950 129 949 l 560 950 q 569 944 567 950 q 567 933 572 939 l 463 831 m 88 481 q 75 481 81 474 l 49 507 q 46 514 46 510 l 46 867 q 49 872 46 869 l 75 897 q 88 897 81 903 l 163 821 q 165 815 165 818 l 165 564 q 163 557 165 560 l 88 481 m 453 418 q 446 415 450 415 l 168 415 q 161 418 164 415 l 111 469 q 111 482 104 475 l 161 532 q 168 535 164 535 l 446 535 q 453 532 450 535 l 503 482 q 503 469 510 475 l 453 418 m 540 53 q 528 53 533 46 l 451 128 q 449 135 449 131 l 449 386 q 451 393 449 390 l 528 469 q 540 469 533 475 l 567 444 q 569 438 569 442 l 569 85 q 567 78 569 81 l 540 53 m 490 3 q 483 0 488 0 l 56 0 q 46 6 49 0 q 49 17 43 11 l 149 117 q 156 119 151 119 l 182 121 l 432 121 q 439 118 436 121 l 515 42 q 515 28 522 35 l 490 3 z "},"t":{"ha":604,"x_min":15,"x_max":581,"o":"m 329 3 q 317 3 322 -4 l 240 78 q 238 85 238 81 l 238 386 q 240 393 238 390 l 317 469 q 329 469 322 474 l 356 444 q 358 438 358 442 l 358 35 q 356 28 358 31 l 329 3 m 329 481 q 317 481 322 474 l 240 557 q 238 564 238 560 l 238 808 q 247 818 238 818 l 349 818 q 358 808 358 818 l 358 514 q 356 507 358 510 l 329 481 m 575 922 q 575 910 581 915 l 500 833 q 493 831 497 831 l 104 831 q 97 833 100 831 l 22 910 q 22 922 15 915 l 46 947 q 53 950 49 950 l 547 950 l 575 922 z "},"u":{"ha":621,"x_min":43,"x_max":567,"o":"m 79 0 q 69 6 72 0 q 72 17 67 11 l 172 117 q 179 119 175 119 l 431 119 q 438 117 435 119 l 538 17 q 540 6 543 11 q 531 0 538 0 l 79 0 m 567 35 q 561 26 567 28 q 550 28 556 24 l 449 128 q 446 135 446 131 l 446 386 q 449 393 446 390 l 525 469 q 538 469 531 475 l 564 444 q 567 438 567 442 l 567 35 m 538 481 q 525 481 531 474 l 449 557 q 446 564 446 560 l 446 840 q 449 847 446 844 l 550 947 q 561 950 556 953 q 567 940 567 947 l 567 514 q 564 507 567 510 l 538 481 m 85 481 q 72 481 78 474 l 46 507 q 43 514 43 510 l 43 940 q 49 950 43 947 q 60 947 54 953 l 161 847 q 164 840 164 844 l 164 564 q 161 557 164 560 l 85 481 m 164 135 q 161 128 164 131 l 60 28 q 49 26 54 24 q 43 35 43 28 l 43 438 q 46 444 43 442 l 72 469 q 85 469 78 474 l 161 393 q 164 386 164 390 l 164 135 z "},"v":{"ha":610,"x_min":43,"x_max":565,"o":"m 560 436 q 558 429 560 431 q 458 218 507 324 q 360 6 408 113 q 351 0 357 0 l 321 0 q 311 10 311 0 l 311 181 q 318 201 311 183 q 337 243 325 218 q 363 298 349 268 q 390 356 376 328 l 428 435 q 433 440 428 440 l 535 476 q 547 471 544 479 l 560 436 m 538 481 q 525 481 531 474 l 449 557 q 446 564 446 560 l 446 844 l 549 949 q 560 951 554 954 q 565 942 565 949 l 565 510 l 538 481 m 83 481 q 71 481 76 474 l 46 507 q 43 514 43 510 l 43 942 q 49 951 43 949 q 60 949 54 954 l 163 844 l 163 564 q 160 557 163 560 l 83 481 m 297 10 q 288 0 297 0 l 257 0 q 249 6 251 0 l 51 429 q 51 433 51 431 q 50 436 50 435 l 63 471 q 75 476 65 479 l 178 439 l 218 356 q 244 299 231 329 q 270 244 258 269 q 290 200 282 218 q 297 181 297 182 l 297 10 z "},"w":{"ha":692,"x_min":43,"x_max":642,"o":"m 613 481 q 599 481 606 474 l 524 557 q 521 564 521 560 l 521 840 q 524 847 521 844 l 625 949 q 636 951 631 954 q 642 942 642 949 l 642 514 q 639 507 642 510 l 613 481 m 642 35 q 636 26 642 28 q 625 28 631 24 l 524 129 q 521 136 521 132 l 521 388 q 524 394 521 392 l 599 471 q 613 471 606 475 l 639 444 q 642 438 642 442 l 642 35 m 78 0 q 68 6 71 0 q 71 17 65 11 l 172 118 q 179 121 175 121 l 506 121 q 513 118 510 121 l 613 17 q 615 6 618 11 q 606 0 613 0 l 78 0 m 296 136 q 286 146 286 136 l 286 438 q 289 444 286 442 l 339 494 q 351 494 344 500 l 401 444 q 404 438 404 442 l 404 146 q 396 136 404 136 l 296 136 m 85 481 q 71 481 78 474 l 46 507 q 43 514 43 510 l 43 942 q 48 951 43 949 q 58 949 53 954 l 160 847 q 163 840 163 844 l 163 564 q 160 557 163 560 l 85 481 m 163 136 q 160 129 163 132 l 58 28 q 48 26 53 24 q 43 35 43 28 l 43 438 q 46 444 43 442 l 71 471 q 85 471 78 475 l 160 394 q 163 388 163 392 l 163 136 z "},"x":{"ha":578,"x_min":33,"x_max":542,"o":"m 542 40 l 526 7 q 518 0 522 0 l 436 0 q 428 6 431 0 q 415 36 425 11 q 389 97 404 61 q 357 172 374 132 q 326 245 340 211 q 303 301 313 279 q 294 324 294 324 l 294 460 q 304 469 294 469 l 357 469 q 365 464 363 469 l 542 40 m 281 324 q 272 301 281 324 q 249 245 263 279 q 218 172 235 211 q 186 97 201 132 q 160 36 171 61 q 147 6 150 11 q 139 0 144 0 l 58 0 q 49 7 51 0 l 33 40 l 211 464 q 219 469 214 469 l 271 469 q 281 460 281 469 l 281 324 m 281 492 q 271 482 281 482 l 219 482 q 211 488 214 482 l 33 910 l 49 943 q 58 950 51 950 l 139 950 q 147 944 144 950 q 160 913 150 939 q 186 852 171 888 q 218 777 201 817 q 249 703 235 738 q 272 647 263 669 q 281 625 281 625 l 281 492 m 542 910 l 365 488 q 357 482 363 482 l 304 482 q 294 492 294 482 l 294 625 q 303 647 294 625 q 326 703 313 669 q 357 777 340 738 q 389 852 374 817 q 415 913 404 888 q 428 944 425 939 q 436 950 431 950 l 518 950 q 525 944 522 950 l 542 910 z "},"y":{"ha":621,"x_min":42,"x_max":568,"o":"m 539 481 q 526 481 532 474 l 450 557 q 447 564 447 560 l 447 839 q 450 846 447 843 l 551 947 q 563 950 557 953 q 568 940 568 947 l 568 513 q 565 506 568 508 l 539 481 m 539 53 q 526 53 532 46 l 450 128 q 447 135 447 131 l 447 386 q 450 393 447 390 l 526 469 q 539 469 532 475 l 565 443 q 568 436 568 440 l 568 85 q 565 78 568 81 l 539 53 m 489 3 q 482 0 486 0 l 54 0 q 44 6 47 0 q 47 17 42 11 l 151 119 l 432 119 q 439 117 436 119 l 515 40 q 515 26 522 33 l 489 3 m 451 418 q 444 415 449 415 l 167 415 q 160 418 163 415 l 110 468 q 110 481 103 474 l 160 532 q 167 535 163 535 l 444 535 q 451 532 449 535 l 501 481 q 501 468 508 474 l 451 418 m 85 481 q 72 481 78 474 l 47 506 q 44 513 44 508 l 44 940 q 50 950 44 947 q 61 947 56 953 l 164 843 l 164 564 q 161 557 164 560 l 85 481 z "},"z":{"ha":586,"x_min":24,"x_max":549,"o":"m 542 40 q 542 26 549 33 l 517 3 q 510 0 514 0 l 78 0 q 71 3 74 0 l 31 43 q 29 54 26 47 l 57 114 q 65 119 60 119 l 460 119 q 467 117 464 119 l 542 40 m 318 408 l 318 400 l 199 139 q 190 133 196 133 l 79 133 q 71 147 68 133 l 206 440 l 253 469 l 286 469 q 294 464 292 469 l 318 408 m 468 725 q 422 623 446 676 q 378 535 397 569 l 378 536 q 356 518 374 531 q 324 494 339 506 l 307 481 l 261 481 q 251 488 254 481 l 239 517 l 374 811 q 382 817 376 817 l 493 817 q 501 803 507 817 l 468 725 m 517 836 q 508 831 514 831 l 114 831 q 107 833 110 831 l 31 910 q 31 922 24 915 l 57 947 q 64 950 60 950 l 493 950 q 500 947 497 950 l 542 906 q 543 894 546 901 l 517 836 z "},"$":{"ha":621,"x_min":43,"x_max":575,"o":"m 572 86 q 569 79 572 82 l 543 54 q 531 54 536 47 l 454 131 q 451 138 451 133 l 451 390 q 454 397 451 394 l 531 474 q 543 474 536 479 l 569 449 q 572 442 572 446 l 572 86 m 363 -101 q 360 -107 363 -104 l 335 -133 q 322 -133 328 -140 l 246 -57 q 243 -50 243 -54 l 243 -24 q 253 -14 243 -14 l 353 -14 q 363 -24 363 -14 l 363 -101 m 493 3 q 486 0 490 0 l 54 0 q 45 6 47 0 q 49 17 43 11 l 149 118 q 156 121 151 121 l 436 121 q 443 118 440 121 l 519 42 q 519 29 525 35 l 493 3 m 507 486 q 507 472 514 479 l 456 422 q 449 419 453 419 l 169 419 q 163 422 165 419 l 111 472 q 111 486 104 479 l 163 536 q 169 539 165 539 l 453 539 l 507 486 m 363 144 q 353 135 363 135 l 253 135 q 243 144 243 135 l 243 396 q 253 406 243 406 l 353 406 q 363 396 363 406 l 363 144 m 363 982 q 353 972 363 972 l 253 972 q 243 982 243 972 l 243 1013 q 246 1019 243 1017 l 322 1096 q 335 1096 328 1101 l 360 1072 q 363 1065 363 1069 l 363 982 m 182 838 q 175 840 178 838 l 99 917 q 99 931 92 924 l 124 956 q 131 958 126 958 l 563 958 q 572 953 569 958 q 569 942 575 947 l 468 840 q 461 838 465 838 l 182 838 m 167 568 q 164 561 167 564 l 88 486 q 74 486 81 479 l 49 511 q 46 518 46 514 l 46 872 q 49 879 46 876 l 74 906 q 88 906 81 913 l 164 829 q 167 822 167 826 l 167 568 m 363 564 q 353 554 363 554 l 253 554 q 243 564 243 554 l 243 814 q 253 824 243 824 l 353 824 q 363 814 363 824 l 363 564 z "},"!":{"ha":213,"x_min":46,"x_max":165,"o":"m 165 518 q 163 511 165 514 l 139 486 q 125 486 132 479 l 49 561 q 46 568 46 564 l 46 872 q 49 879 46 876 l 125 956 q 139 956 132 963 l 163 931 q 165 924 165 928 l 165 518 m 165 10 q 157 0 165 0 l 56 0 q 46 10 46 0 l 46 110 q 56 119 46 119 l 157 119 q 165 110 165 119 l 165 10 m 165 174 q 164 171 164 172 q 163 168 163 168 l 139 142 q 125 142 132 135 l 49 218 q 46 225 46 221 l 46 390 q 49 397 46 394 l 125 474 q 139 474 132 481 l 163 449 q 165 442 165 446 l 165 174 z "},"?":{"ha":575,"x_min":24,"x_max":522,"o":"m 393 840 q 386 838 390 838 l 136 838 q 129 840 132 838 l 29 940 q 26 951 24 946 q 35 957 28 957 l 438 957 q 444 954 442 957 l 469 931 q 469 917 476 924 l 393 840 m 522 517 q 519 510 522 513 l 496 485 q 482 485 489 478 l 406 561 q 403 568 403 564 l 403 821 q 406 828 403 825 l 482 904 q 496 904 489 911 l 519 878 q 522 871 522 875 l 522 517 m 457 485 q 457 471 464 478 l 407 421 q 400 418 404 418 l 289 418 q 282 421 285 418 l 232 471 q 232 485 225 478 l 282 536 q 289 539 285 539 l 400 539 q 407 536 404 539 l 457 485 m 286 224 q 283 217 286 219 l 207 142 q 193 142 200 135 l 169 167 q 167 174 167 169 l 167 442 q 169 449 167 446 l 193 472 q 207 472 200 479 l 283 396 q 286 389 286 393 l 286 224 m 286 10 q 276 0 286 0 l 175 0 q 167 10 167 0 l 167 108 q 175 118 167 118 l 276 118 q 286 108 286 118 l 286 10 z "},"-":{"ha":371,"x_min":21,"x_max":350,"o":"m 343 478 q 343 464 350 471 l 293 414 q 286 411 290 411 l 85 411 q 78 414 81 411 l 28 464 q 28 478 21 471 l 78 528 q 85 531 81 531 l 286 531 q 293 528 290 531 l 343 478 z "},":":{"ha":222,"x_min":51,"x_max":171,"o":"m 171 263 q 161 253 171 253 l 61 253 q 51 263 51 253 l 51 364 q 61 374 51 374 l 161 374 q 171 364 171 374 l 171 263 m 171 650 q 161 640 171 640 l 61 640 q 51 650 51 640 l 51 750 q 61 760 51 760 l 161 760 q 171 750 171 760 l 171 650 z "},".":{"ha":219,"x_min":42,"x_max":161,"o":"m 153 118 q 161 108 161 118 l 161 10 q 153 0 161 0 l 51 0 q 42 10 42 0 l 42 108 q 51 118 42 118 l 153 118 z "},",":{"ha":219,"x_min":46,"x_max":167,"o":"m 167 -64 q 164 -71 167 -68 l 114 -122 q 100 -122 107 -129 l 49 -71 q 46 -64 46 -68 l 46 106 q 56 115 46 115 l 157 115 q 167 106 167 115 l 167 -64 z "},"\"":{"ha":360,"x_min":36,"x_max":313,"o":"m 157 765 q 154 758 157 761 l 104 707 q 90 707 97 700 l 39 758 q 36 765 36 761 l 36 936 q 46 944 36 944 l 147 944 q 157 936 157 944 l 157 765 m 313 764 q 310 757 313 760 l 260 706 q 246 706 253 699 l 193 757 q 192 764 192 758 l 192 935 q 200 943 192 943 l 303 943 q 313 935 313 943 l 313 764 z "},";":{"ha":222,"x_min":50,"x_max":171,"o":"m 171 650 q 161 640 171 640 l 61 640 q 51 650 51 640 l 51 750 q 61 760 51 760 l 161 760 q 171 750 171 760 l 171 650 m 171 196 q 168 189 171 192 l 118 138 q 104 138 111 131 l 53 189 q 50 196 50 192 l 50 367 q 60 376 50 376 l 161 376 q 171 367 171 376 l 171 196 z "},"(":{"ha":208,"x_min":44,"x_max":372,"o":"m 263 983 l 181 983 q 174 986 176 983 l 97 1063 q 97 1076 90 1069 l 124 1100 q 131 1103 126 1103 l 360 1103 q 369 1097 367 1103 q 367 1086 372 1092 l 263 983 m 85 485 q 71 485 78 478 l 47 510 q 44 517 44 513 l 44 1017 q 47 1024 44 1021 l 71 1050 q 85 1050 78 1057 l 161 974 q 164 967 164 971 l 164 568 q 161 561 164 564 l 85 485 m 367 -131 q 369 -142 372 -136 q 360 -147 367 -147 l 131 -147 q 124 -144 126 -147 l 97 -119 q 97 -106 90 -112 l 174 -31 q 181 -28 176 -28 l 258 -28 q 265 -31 263 -28 l 367 -131 m 85 -94 q 71 -94 78 -101 l 47 -68 q 44 -61 44 -65 l 44 442 q 47 449 44 446 l 71 472 q 85 472 78 479 l 161 396 q 164 389 164 393 l 164 -11 q 161 -18 164 -15 l 85 -94 z "},")":{"ha":222,"x_min":-160,"x_max":169,"o":"m -49 -25 l 33 -25 q 39 -28 36 -25 l 115 -104 q 115 -117 122 -110 l 90 -142 q 83 -144 88 -144 l -147 -144 q -157 -139 -154 -144 q -154 -128 -160 -133 l -49 -25 m 128 474 q 142 474 135 481 l 167 450 q 169 443 169 447 l 169 -58 q 167 -65 169 -62 l 142 -92 q 128 -92 135 -99 l 51 -15 q 49 -8 49 -12 l 49 390 q 51 397 49 394 l 128 474 m -154 1089 q -157 1100 -160 1094 q -147 1106 -154 1106 l 83 1106 q 90 1103 88 1106 l 115 1078 q 115 1065 122 1072 l 39 989 q 33 986 36 986 l -44 986 q -51 989 -49 986 l -154 1089 m 128 1053 q 142 1053 135 1060 l 167 1026 q 169 1019 169 1024 l 169 518 q 167 511 169 514 l 142 486 q 128 486 135 479 l 51 563 q 49 569 49 565 l 49 969 q 51 976 49 974 l 128 1053 z "},"B":{"ha":621,"x_min":46,"x_max":572,"o":"m 493 3 q 486 0 490 0 l 81 0 q 71 6 74 0 q 74 17 68 11 l 175 117 q 182 119 178 119 l 436 119 q 443 117 440 119 l 518 40 q 518 28 524 33 l 493 3 m 543 53 q 531 53 536 46 l 454 129 q 451 136 451 132 l 451 389 q 454 396 451 393 l 531 472 q 543 472 536 478 l 569 447 q 572 440 572 444 l 572 85 q 569 78 572 81 l 543 53 m 543 485 q 531 485 536 478 l 454 560 q 451 567 451 563 l 451 821 q 454 828 451 825 l 531 904 q 543 904 536 910 l 569 878 q 572 871 572 875 l 572 517 q 569 510 572 513 l 543 485 m 443 839 q 436 836 440 836 l 182 836 q 175 839 178 836 l 149 865 q 110 902 129 882 q 74 940 92 922 q 72 951 69 946 q 81 957 74 957 l 486 957 q 493 954 490 957 l 518 929 q 518 915 525 922 l 443 839 m 88 485 q 74 485 81 478 l 49 510 q 46 517 46 513 l 46 922 q 51 932 46 929 q 61 929 56 935 l 164 828 q 167 821 167 825 l 167 567 q 164 560 167 563 l 88 485 m 456 421 q 449 418 453 418 l 169 418 q 163 421 165 418 l 111 471 q 111 485 104 478 l 163 536 q 169 539 165 539 l 449 539 q 456 536 453 539 l 507 485 q 507 471 514 478 l 456 421 m 61 28 q 51 25 56 22 q 46 35 46 28 l 46 440 q 49 447 46 444 l 74 472 q 88 472 81 479 l 164 396 q 167 389 167 393 l 167 136 q 164 129 167 132 l 61 28 z "},"C":{"ha":563,"x_min":44,"x_max":547,"o":"m 438 838 l 181 838 q 174 840 176 838 l 97 917 q 97 931 90 924 l 122 954 q 129 957 125 957 l 535 957 q 544 951 542 957 q 542 940 547 946 l 438 838 m 85 485 q 71 485 78 478 l 46 510 q 44 517 44 511 l 44 871 q 46 878 44 876 l 71 904 q 85 904 78 911 l 161 828 q 164 821 164 825 l 164 568 q 161 561 164 564 l 85 485 m 542 17 q 544 6 547 11 q 535 0 542 0 l 129 0 q 122 3 125 0 l 97 28 q 97 40 90 33 l 174 117 q 181 119 176 119 l 433 119 q 440 117 438 119 l 542 17 m 85 53 q 71 53 78 46 l 46 79 q 44 86 44 81 l 44 442 q 46 449 44 447 l 71 472 q 85 472 78 479 l 161 396 q 164 389 164 393 l 164 136 q 161 129 164 132 l 85 53 z "},"A":{"ha":621,"x_min":44,"x_max":569,"o":"m 453 104 q 450 110 450 104 l 450 389 q 453 396 450 393 l 529 472 q 542 472 535 478 l 567 447 q 569 440 569 444 l 569 10 q 564 0 569 3 q 553 3 558 -3 l 453 104 m 569 517 q 567 510 569 513 l 542 485 q 529 485 535 478 l 453 560 q 450 567 450 563 l 450 821 q 453 828 450 825 l 553 929 q 564 932 558 935 q 569 922 569 929 l 569 517 m 440 839 q 433 836 438 836 l 181 836 q 174 839 176 836 l 71 940 q 68 951 65 946 q 78 957 71 957 l 536 957 q 545 951 543 957 q 542 940 547 946 l 440 839 m 164 567 q 161 560 164 563 l 85 485 q 71 485 78 478 l 47 510 q 44 517 44 513 l 44 922 q 49 932 44 929 q 60 929 54 935 l 161 828 q 164 821 164 825 l 164 567 m 454 421 q 447 418 451 418 l 167 418 q 160 421 163 418 l 110 471 q 110 485 103 478 l 160 536 q 167 539 163 539 l 447 539 q 454 536 451 539 l 504 485 q 504 471 511 478 l 454 421 m 60 3 q 49 0 54 -3 q 44 10 44 3 l 44 440 q 47 447 44 444 l 71 472 q 85 472 78 479 l 161 396 q 164 389 164 393 l 164 110 q 161 104 164 104 l 60 3 z "}}}
